<svg width="512px" height="512px" viewBox="0 0 512 512" version="1.1" xmlns="http://www.w3.org/2000/svg" xmlns:xlink="http://www.w3.org/1999/xlink">
    <g stroke="none" stroke-width="1" fill="none" fill-rule="evenodd">
        <path
          d="M235,37 C219.826694,38.4177783 205.10712,41.4163803 191,45.8318868 L235,169 L235,37 Z M159.041099,58 C140.400312,67.1363567 123.235632,78.8117697 108,92.5741143 L208,193 L159.041099,58 Z M84.6555126,118 C74.704116,130.491226 66.080983,144.089138 59,158.579681 L175,209 L84.6555126,118 Z M45.5256609,191 C40.1454477,208.190389 36.8715681,226.287266 36,245 L172,245 L45.5256609,191 Z M37,276 C38.5307325,292.60533 41.91036,308.675623 46.9311278,324 L166,276 L37,276 Z M61,357.94641 C69.531336,374.276175 80.0530843,389.402344 92.2432021,403 L180,310 L61,357.94641 Z M118,427.851904 C128.99985,436.651891 140.861336,444.417512 153.437185,451 L197,344 L118,427.851904 Z M186,464.790329 C201.631107,469.964137 218.036239,473.440698 235,475 L235,345 L186,464.790329 Z M266,476 C382.881082,470.660571 476,374.430418 476,256.500436 C476,138.570105 382.881082,42.338905 266,37 L266,252.215279 L266,252.215279 L266,252.215279 L266,254.278438 L266,254.280184 L266,254.280184 L266,272.298791 L266,272.298791 L266,272.298791 L266,476 Z M256.000874,0 C114.615227,0 0,114.615157 0,256.000717 C0,397.385228 114.615227,512 256.000874,512 C397.385298,512 512,397.385228 512,256.000717 C512,114.615157 397.385298,0 256.000874,0 Z"
          fill="#E8595C"
        ></path>
    </g>
</svg>
