<?xml version="1.0" standalone="no"?>
<!DOCTYPE svg PUBLIC "-//W3C//DTD SVG 20010904//EN"
 "http://www.w3.org/TR/2001/REC-SVG-20010904/DTD/svg10.dtd">
<svg version="1.0" xmlns="http://www.w3.org/2000/svg"
 width="700.000000pt" height="700.000000pt" viewBox="0 0 700.000000 700.000000"
 preserveAspectRatio="xMidYMid meet">
<metadata>
Created by potrace 1.14, written by Peter Selinger 2001-2017
</metadata>
<g transform="translate(0.000000,700.000000) scale(0.100000,-0.100000)"
fill="#000000" stroke="none">
<path d="M3278 6995 c-1 -1 -42 -5 -89 -9 -47 -4 -95 -8 -105 -10 -10 -2 -45
-7 -78 -11 -101 -12 -214 -35 -381 -76 -282 -71 -598 -199 -845 -342 -47 -27
-101 -58 -120 -69 -55 -31 -217 -144 -310 -217 -438 -339 -825 -830 -1035
-1311 -25 -58 -50 -114 -55 -125 -45 -93 -150 -427 -176 -560 -2 -11 -10 -54
-19 -95 -29 -147 -35 -193 -52 -370 -15 -163 -8 -592 12 -711 2 -13 6 -46 9
-74 47 -408 239 -953 466 -1318 30 -48 60 -95 65 -105 24 -42 133 -191 208
-285 163 -202 344 -382 557 -552 92 -74 370 -265 386 -265 4 0 15 -6 23 -14 9
-7 81 -47 161 -88 354 -181 736 -303 1109 -354 25 -3 57 -8 71 -10 163 -25
682 -25 842 1 13 2 46 7 73 10 71 10 87 13 115 18 14 3 43 8 65 12 22 4 76 16
120 27 44 10 87 21 96 23 35 8 168 48 239 72 557 188 1090 542 1480 982 36 41
70 79 76 85 29 30 185 242 240 326 120 184 241 412 315 597 66 163 147 422
175 558 16 75 54 300 60 350 4 33 9 76 11 95 8 71 10 517 3 595 -17 172 -22
220 -25 225 -2 3 -6 30 -10 60 -3 30 -10 71 -15 90 -5 19 -12 51 -15 70 -13
75 -67 275 -106 392 -348 1037 -1165 1855 -2204 2206 -167 56 -419 119 -555
137 -19 3 -46 7 -60 10 -13 2 -54 7 -90 11 -36 3 -78 8 -95 11 -33 5 -531 13
-537 8z m-65 -1389 c1 -487 -1 -886 -5 -886 -3 0 -10 12 -16 28 -30 84 -234
655 -292 817 -37 105 -72 204 -78 220 -6 17 -40 113 -77 215 -37 102 -82 228
-100 281 l-33 97 147 36 c166 40 436 89 449 80 2 -1 4 -401 5 -888z m542 880
c39 -4 86 -8 105 -11 19 -3 56 -7 81 -10 25 -3 56 -8 70 -10 23 -5 88 -18 99
-20 3 -1 32 -7 65 -14 33 -7 74 -17 90 -22 17 -5 71 -21 120 -35 270 -79 609
-246 850 -418 191 -137 417 -342 546 -496 29 -36 56 -67 59 -70 27 -24 190
-255 190 -269 0 -5 4 -11 8 -13 13 -5 105 -166 161 -280 117 -239 204 -498
252 -743 9 -50 11 -60 24 -145 4 -25 9 -52 10 -60 24 -130 25 -613 1 -735 -2
-11 -7 -45 -10 -75 -6 -46 -30 -174 -52 -270 -25 -113 -93 -321 -148 -453 -98
-236 -265 -518 -432 -727 -132 -166 -349 -372 -584 -553 -19 -15 -135 -91
-214 -141 -85 -54 -364 -188 -486 -234 -144 -55 -297 -98 -490 -138 -19 -5
-37 -8 -40 -9 -3 -1 -30 -5 -60 -9 -30 -4 -66 -9 -80 -11 -30 -4 -126 -14
-197 -20 -29 -3 -53 -1 -54 3 -4 31 -3 5976 1 5981 6 9 33 19 40 16 3 -2 37
-6 75 -9z m-1477 -566 c55 -151 148 -408 207 -570 59 -162 121 -331 137 -375
16 -44 31 -84 32 -90 2 -5 6 -17 9 -25 6 -15 41 -110 133 -370 l44 -125 -662
666 c-365 366 -671 675 -681 686 -17 20 -16 22 66 91 99 83 230 178 341 248
130 80 261 151 268 145 4 -3 52 -130 106 -281z m-506 -1152 c334 -337 606
-614 604 -615 -2 -2 -404 171 -481 207 -11 5 -58 25 -105 45 -91 39 -128 55
-187 81 -42 19 -336 146 -598 259 -99 43 -184 81 -188 85 -10 9 13 56 91 190
87 148 233 360 250 360 4 0 280 -275 614 -612z m-462 -673 c300 -128 653 -279
785 -335 132 -56 242 -104 244 -106 2 -2 -412 -4 -921 -4 l-926 0 3 56 c5 80
25 243 40 324 20 106 30 149 57 247 l30 111 71 -30 c40 -17 317 -135 617 -263z
m938 -876 c-7 -4 -105 -44 -218 -89 -113 -44 -218 -87 -235 -94 -16 -8 -109
-45 -205 -84 -96 -38 -326 -131 -510 -205 -184 -74 -358 -145 -387 -156 l-52
-20 -10 32 c-44 147 -81 306 -95 402 -4 23 -9 52 -11 65 -3 14 -8 54 -11 91
l-6 65 876 0 c482 0 871 -3 864 -7z m192 -475 c0 -3 -6 -11 -12 -18 -20 -20
-272 -287 -308 -326 -18 -19 -91 -97 -164 -174 -72 -76 -144 -152 -161 -170
-76 -82 -328 -348 -402 -426 -46 -48 -93 -99 -106 -114 l-23 -27 -30 33 c-96
106 -228 289 -321 444 -69 115 -79 139 -61 147 102 41 492 199 698 281 146 59
274 111 285 116 11 5 135 55 275 110 140 56 269 108 285 115 33 16 45 18 45 9z
m247 -466 c-19 -45 -141 -342 -202 -493 -147 -364 -256 -631 -269 -660 -7 -16
-35 -84 -61 -150 -27 -66 -52 -124 -56 -129 -14 -16 -248 125 -415 251 l-72
53 37 38 c62 66 307 325 346 367 20 22 90 96 155 165 65 69 137 145 160 170
23 25 104 110 179 189 75 79 150 159 166 177 32 36 40 42 32 22z m528 -888 l0
-880 -28 0 c-68 0 -326 46 -457 81 -148 40 -180 51 -180 61 0 15 656 1618 662
1618 2 0 3 -396 3 -880z"/>
</g>
</svg>
